name Walk10.mot
datacolumns 19
datarows 30
range 1.75600000 1.78500000
endheader

                time	   L_ground_force_vx	   L_ground_force_vy	   L_ground_force_vz	   L_ground_force_px	   L_ground_force_py	   L_ground_force_pz	   R_ground_force_vx	   R_ground_force_vy	   R_ground_force_vz	   R_ground_force_px	   R_ground_force_py	   R_ground_force_pz	   L_ground_torque_x	   L_ground_torque_y	   L_ground_torque_z	   R_ground_torque_x	   R_ground_torque_y	   R_ground_torque_z	
          1.75600000	          0.00000000	          0.00000000	          0.00000000	          0.00000000	          0.00000000	          0.00000000	         15.16843936	        557.14943838	         37.64973730	         -0.30491479	          0.00000000	         -0.10624516	          0.00000000	          0.00000000	          0.00000000	          0.00000000	         -0.22039667	          0.00000000	
          1.75700000	          0.00000000	          0.00000000	          0.00000000	          0.00000000	          0.00000000	          0.00000000	         15.61694571	        559.13415472	         37.84695398	         -0.30475959	          0.00000000	         -0.10628391	          0.00000000	          0.00000000	          0.00000000	          0.00000000	         -0.21741597	          0.00000000	
          1.75800000	          0.00000000	          0.00000000	          0.00000000	          0.00000000	          0.00000000	          0.00000000	         16.09793750	        561.08397145	         38.03524827	         -0.30462104	          0.00000000	         -0.10638548	          0.00000000	          0.00000000	          0.00000000	          0.00000000	         -0.21477526	          0.00000000	
          1.75900000	          0.00000000	          0.00000000	          0.00000000	          0.00000000	          0.00000000	          0.00000000	         16.60776101	        562.99066571	         38.21795806	         -0.30447245	          0.00000000	         -0.10651908	          0.00000000	          0.00000000	          0.00000000	          0.00000000	         -0.20256852	          0.00000000	
          1.76000000	          0.00000000	          0.00000000	          0.00000000	          0.00000000	          0.00000000	          0.00000000	         17.12210469	        564.85975645	         38.40041175	         -0.30430240	          0.00000000	         -0.10666237	          0.00000000	          0.00000000	          0.00000000	          0.00000000	         -0.17626828	          0.00000000	
          1.76100000	          0.00000000	          0.00000000	          0.00000000	          0.00000000	          0.00000000	          0.00000000	         17.61521979	        566.71623253	         38.58638844	         -0.30412276	          0.00000000	         -0.10680393	          0.00000000	          0.00000000	          0.00000000	          0.00000000	         -0.14183143	          0.00000000	
          1.76200000	          0.00000000	          0.00000000	          0.00000000	          0.00000000	          0.00000000	          0.00000000	         18.07983052	        568.57249549	         38.78103937	         -0.30394694	          0.00000000	         -0.10692650	          0.00000000	          0.00000000	          0.00000000	          0.00000000	         -0.11097491	          0.00000000	
          1.76300000	          0.00000000	          0.00000000	          0.00000000	          0.00000000	          0.00000000	          0.00000000	         18.52603819	        570.43013931	         38.99172133	         -0.30377660	          0.00000000	         -0.10702031	          0.00000000	          0.00000000	          0.00000000	          0.00000000	         -0.09182140	          0.00000000	
          1.76400000	          0.00000000	          0.00000000	          0.00000000	          0.00000000	          0.00000000	          0.00000000	         18.96513260	        572.30712171	         39.22531194	         -0.30361222	          0.00000000	         -0.10709072	          0.00000000	          0.00000000	          0.00000000	          0.00000000	         -0.08323401	          0.00000000	
          1.76500000	          0.00000000	          0.00000000	          0.00000000	          0.00000000	          0.00000000	          0.00000000	         19.40153114	        574.22490347	         39.48498240	         -0.30345636	          0.00000000	         -0.10713845	          0.00000000	          0.00000000	          0.00000000	          0.00000000	         -0.07843704	          0.00000000	
          1.76600000	          0.00000000	          0.00000000	          0.00000000	          0.00000000	          0.00000000	          0.00000000	         19.83836572	        576.17356721	         39.76325660	         -0.30330762	          0.00000000	         -0.10716863	          0.00000000	          0.00000000	          0.00000000	          0.00000000	         -0.07179189	          0.00000000	
          1.76700000	          0.00000000	          0.00000000	          0.00000000	          0.00000000	          0.00000000	          0.00000000	         20.27957843	        578.11085331	         40.04037988	         -0.30316591	          0.00000000	         -0.10721631	          0.00000000	          0.00000000	          0.00000000	          0.00000000	         -0.06178716	          0.00000000	
          1.76800000	          0.00000000	          0.00000000	          0.00000000	          0.00000000	          0.00000000	          0.00000000	         20.72688177	        580.01001749	         40.30022418	         -0.30303243	          0.00000000	         -0.10731672	          0.00000000	          0.00000000	          0.00000000	          0.00000000	         -0.05060794	          0.00000000	
          1.76900000	          0.00000000	          0.00000000	          0.00000000	          0.00000000	          0.00000000	          0.00000000	         21.18113039	        581.89263841	         40.54697341	         -0.30289562	          0.00000000	         -0.10745397	          0.00000000	          0.00000000	          0.00000000	          0.00000000	         -0.04032792	          0.00000000	
          1.77000000	          0.00000000	          0.00000000	          0.00000000	          0.00000000	          0.00000000	          0.00000000	         21.64269420	        583.78371199	         40.79570574	         -0.30273337	          0.00000000	         -0.10757542	          0.00000000	          0.00000000	          0.00000000	          0.00000000	         -0.03061548	          0.00000000	
          1.77100000	          0.00000000	          0.00000000	          0.00000000	          0.00000000	          0.00000000	          0.00000000	         22.10838264	        585.67546409	         41.05221472	         -0.30253413	          0.00000000	         -0.10764555	          0.00000000	          0.00000000	          0.00000000	          0.00000000	         -0.02202583	          0.00000000	
          1.77200000	          0.00000000	          0.00000000	          0.00000000	          0.00000000	          0.00000000	          0.00000000	         22.57283290	        587.56576561	         41.31213697	         -0.30230681	          0.00000000	         -0.10766283	          0.00000000	          0.00000000	          0.00000000	          0.00000000	         -0.01803663	          0.00000000	
          1.77300000	          0.00000000	          0.00000000	          0.00000000	          0.00000000	          0.00000000	          0.00000000	         23.03616248	        589.48285674	         41.56812578	         -0.30207673	          0.00000000	         -0.10764819	          0.00000000	          0.00000000	          0.00000000	          0.00000000	         -0.02188311	          0.00000000	
          1.77400000	          0.00000000	          0.00000000	          0.00000000	          0.00000000	          0.00000000	          0.00000000	         23.51045028	        591.46233218	         41.81085514	         -0.30187681	          0.00000000	         -0.10763767	          0.00000000	          0.00000000	          0.00000000	          0.00000000	         -0.03204216	          0.00000000	
          1.77500000	          0.00000000	          0.00000000	          0.00000000	          0.00000000	          0.00000000	          0.00000000	         24.01538682	        593.51875374	         42.03492875	         -0.30172560	          0.00000000	         -0.10766767	          0.00000000	          0.00000000	          0.00000000	          0.00000000	         -0.03992708	          0.00000000	
          1.77600000	          0.00000000	          0.00000000	          0.00000000	          0.00000000	          0.00000000	          0.00000000	         24.56406694	        595.63164701	         42.24453853	         -0.30160998	          0.00000000	         -0.10774583	          0.00000000	          0.00000000	          0.00000000	          0.00000000	         -0.03412782	          0.00000000	
          1.77700000	          0.00000000	          0.00000000	          0.00000000	          0.00000000	          0.00000000	          0.00000000	         25.15393253	        597.75587628	         42.44676685	         -0.30150174	          0.00000000	         -0.10784614	          0.00000000	          0.00000000	          0.00000000	          0.00000000	         -0.01101832	          0.00000000	
          1.77800000	          0.00000000	          0.00000000	          0.00000000	          0.00000000	          0.00000000	          0.00000000	         25.77223502	        599.85560542	         42.64539066	         -0.30138210	          0.00000000	         -0.10794392	          0.00000000	          0.00000000	          0.00000000	          0.00000000	          0.02095640	          0.00000000	
          1.77900000	          0.00000000	          0.00000000	          0.00000000	          0.00000000	          0.00000000	          0.00000000	         26.40329329	        601.93631067	         42.84121272	         -0.30124284	          0.00000000	         -0.10803468	          0.00000000	          0.00000000	          0.00000000	          0.00000000	          0.05057020	          0.00000000	
          1.78000000	          0.00000000	          0.00000000	          0.00000000	          0.00000000	          0.00000000	          0.00000000	         27.02782146	        604.03302715	         43.03284208	         -0.30107958	          0.00000000	         -0.10812160	          0.00000000	          0.00000000	          0.00000000	          0.00000000	          0.07252003	          0.00000000	
          1.78100000	          0.00000000	          0.00000000	          0.00000000	          0.00000000	          0.00000000	          0.00000000	         27.62803182	        606.16971282	         43.22399276	         -0.30089638	          0.00000000	         -0.10820874	          0.00000000	          0.00000000	          0.00000000	          0.00000000	          0.08535661	          0.00000000	
          1.78200000	          0.00000000	          0.00000000	          0.00000000	          0.00000000	          0.00000000	          0.00000000	         28.20101093	        608.34378079	         43.43062320	         -0.30071537	          0.00000000	         -0.10829355	          0.00000000	          0.00000000	          0.00000000	          0.00000000	          0.08801745	          0.00000000	
          1.78300000	          0.00000000	          0.00000000	          0.00000000	          0.00000000	          0.00000000	          0.00000000	         28.76101887	        610.52771109	         43.67048523	         -0.30057151	          0.00000000	         -0.10835654	          0.00000000	          0.00000000	          0.00000000	          0.00000000	          0.08118516	          0.00000000	
          1.78400000	          0.00000000	          0.00000000	          0.00000000	          0.00000000	          0.00000000	          0.00000000	         29.32830274	        612.67149776	         43.94395418	         -0.30048714	          0.00000000	         -0.10838145	          0.00000000	          0.00000000	          0.00000000	          0.00000000	          0.06890918	          0.00000000	
          1.78500000	          0.00000000	          0.00000000	          0.00000000	          0.00000000	          0.00000000	          0.00000000	         29.91966996	        614.73932730	         44.23250781	         -0.30044866	          0.00000000	         -0.10838490	          0.00000000	          0.00000000	          0.00000000	          0.00000000	          0.05808993	          0.00000000	
